<svg xmlns="http://www.w3.org/2000/svg" xmlns:xlink="http://www.w3.org/1999/xlink" width="500" zoomAndPan="magnify" viewBox="0 0 375 374.999991" height="500" preserveAspectRatio="xMidYMid meet" version="1.0"><defs><g/><clipPath id="7970125322"><path d="M 97 97 L 278 97 L 278 278 L 97 278 Z M 97 97 " clip-rule="nonzero"/></clipPath><clipPath id="8ea4698bf4"><path d="M 85.921875 111.507812 L 263.339844 85.945312 L 288.902344 263.363281 L 111.484375 288.925781 Z M 85.921875 111.507812 " clip-rule="nonzero"/></clipPath><clipPath id="bb76bf41a1"><path d="M 85.921875 111.507812 L 263.339844 85.945312 L 288.902344 263.363281 L 111.484375 288.925781 Z M 85.921875 111.507812 " clip-rule="nonzero"/></clipPath><clipPath id="e5a38d61ea"><path d="M 188 57 L 338 57 L 338 220 L 188 220 Z M 188 57 " clip-rule="nonzero"/></clipPath><clipPath id="c0b9a64da5"><path d="M 135.449219 92.085938 L 301.234375 23.929688 L 356.273438 157.808594 L 190.488281 225.964844 Z M 135.449219 92.085938 " clip-rule="nonzero"/></clipPath><clipPath id="5433eba331"><path d="M 135.449219 92.085938 L 301.234375 23.929688 L 356.273438 157.808594 L 190.488281 225.964844 Z M 135.449219 92.085938 " clip-rule="nonzero"/></clipPath><clipPath id="51a81868c6"><path d="M 40 155 L 181 155 L 181 320 L 40 320 Z M 40 155 " clip-rule="nonzero"/></clipPath><clipPath id="2a81de5fd7"><path d="M 18.25 232.527344 L 177.09375 149.460938 L 244.171875 277.730469 L 85.328125 360.796875 Z M 18.25 232.527344 " clip-rule="nonzero"/></clipPath><clipPath id="f554972847"><path d="M 244.519531 277.761719 L 85.675781 360.828125 L 18.597656 232.558594 L 177.4375 149.492188 Z M 244.519531 277.761719 " clip-rule="nonzero"/></clipPath></defs><rect x="-37.5" width="450" fill="#ffffff" y="-37.499999" height="449.999989" fill-opacity="1"/><rect x="-37.5" width="450" fill="#ffffff" y="-37.499999" height="449.999989" fill-opacity="1"/><g clip-path="url(#7970125322)"><g clip-path="url(#8ea4698bf4)"><g clip-path="url(#bb76bf41a1)"><path fill="#c686ab" d="M 276.285156 174.726562 C 276.285156 174.722656 276.285156 174.714844 276.285156 174.707031 C 276.285156 174.699219 276.28125 174.695312 276.28125 174.6875 C 276.28125 174.683594 276.28125 174.683594 276.28125 174.683594 C 269.214844 125.742188 223.65625 91.664062 174.707031 98.714844 C 174.703125 98.714844 174.695312 98.71875 174.691406 98.71875 C 174.6875 98.71875 174.679688 98.71875 174.675781 98.722656 C 125.746094 105.789062 91.675781 151.332031 98.710938 200.265625 C 98.710938 200.269531 98.714844 200.269531 98.714844 200.273438 C 98.714844 200.277344 98.714844 200.285156 98.714844 200.292969 C 98.714844 200.300781 98.71875 200.304688 98.71875 200.3125 C 98.71875 200.3125 98.71875 200.316406 98.71875 200.316406 C 105.785156 249.257812 151.34375 283.335938 200.289062 276.285156 C 200.289062 276.285156 200.289062 276.285156 200.292969 276.285156 C 249.238281 269.230469 283.324219 223.679688 276.289062 174.734375 C 276.285156 174.730469 276.285156 174.730469 276.285156 174.726562 Z M 240.988281 224.132812 C 243.519531 216.351562 245.074219 208.214844 245.585938 199.871094 C 250.757812 196.757812 255.765625 193.296875 260.578125 189.492188 C 260.628906 194.773438 260.25 200.121094 259.382812 205.453125 C 254.121094 212.53125 247.929688 218.800781 240.988281 224.132812 Z M 225.011719 251.394531 C 220.144531 253.730469 215.117188 255.601562 210.042969 257.046875 C 212.332031 251.355469 214.238281 245.574219 215.765625 239.734375 C 223.621094 236.886719 230.992188 233.097656 237.738281 228.472656 C 234.582031 236.636719 230.316406 244.347656 225.011719 251.394531 Z M 150.867188 240.988281 C 158.648438 243.523438 166.785156 245.078125 175.125 245.589844 C 178.242188 250.757812 181.703125 255.765625 185.507812 260.578125 C 180.226562 260.628906 174.878906 260.25 169.546875 259.382812 C 162.46875 254.121094 156.199219 247.929688 150.867188 240.988281 Z M 123.605469 225.011719 C 121.269531 220.144531 119.398438 215.117188 117.953125 210.042969 C 123.644531 212.332031 129.425781 214.238281 135.265625 215.765625 C 138.113281 223.625 141.902344 230.992188 146.527344 237.742188 C 138.363281 234.585938 130.652344 230.316406 123.605469 225.011719 Z M 134.011719 150.871094 C 131.476562 158.648438 129.921875 166.789062 129.410156 175.128906 C 124.238281 178.242188 119.234375 181.703125 114.417969 185.507812 C 114.371094 180.230469 114.75 174.878906 115.613281 169.550781 C 120.878906 162.472656 127.066406 156.203125 134.011719 150.871094 Z M 149.984375 123.609375 C 154.851562 121.273438 159.878906 119.398438 164.957031 117.957031 C 162.667969 123.648438 160.757812 129.425781 159.230469 135.265625 C 151.375 138.113281 144.003906 141.902344 137.257812 146.527344 C 140.414062 138.363281 144.679688 130.65625 149.984375 123.609375 Z M 224.128906 134.011719 C 216.351562 131.476562 208.210938 129.921875 199.871094 129.410156 C 196.753906 124.238281 193.292969 119.234375 189.492188 114.421875 C 194.769531 114.371094 200.117188 114.75 205.449219 115.613281 C 212.527344 120.878906 218.796875 127.070312 224.128906 134.011719 Z M 251.390625 149.984375 C 253.726562 154.851562 255.601562 159.878906 257.042969 164.957031 C 251.351562 162.667969 245.570312 160.761719 239.730469 159.230469 C 236.886719 151.375 233.097656 144.007812 228.46875 137.257812 C 236.632812 140.414062 244.34375 144.679688 251.390625 149.984375 Z M 269.421875 174.890625 C 269.285156 173.984375 269.140625 173.078125 268.976562 172.167969 C 270.335938 172.875 271.683594 173.617188 273.027344 174.371094 Z M 267.84375 175.117188 L 261.105469 176.089844 C 260.675781 173.277344 260.109375 170.460938 259.414062 167.652344 C 262.023438 168.769531 264.605469 169.988281 267.167969 171.269531 C 267.421875 172.550781 267.648438 173.835938 267.84375 175.117188 Z M 259.527344 176.316406 L 244.613281 178.464844 C 243.699219 172.449219 242.269531 166.628906 240.371094 161.042969 C 246.179688 162.609375 251.929688 164.554688 257.585938 166.886719 C 258.40625 170.023438 259.046875 173.171875 259.527344 176.316406 Z M 243.03125 178.691406 L 218.878906 182.171875 C 217.566406 173.429688 215.433594 164.808594 212.523438 156.417969 C 221.234375 156.976562 229.929688 158.375 238.507812 160.566406 C 240.554688 166.359375 242.078125 172.417969 243.03125 178.691406 Z M 217.296875 182.402344 L 188.175781 186.597656 L 183.980469 157.472656 C 192.847656 156.246094 201.828125 155.871094 210.8125 156.339844 C 213.796875 164.824219 215.972656 173.546875 217.296875 182.402344 Z M 183.75 155.894531 L 180.269531 131.738281 C 186.558594 130.882812 192.800781 130.636719 198.9375 130.960938 C 203.460938 138.570312 207.253906 146.519531 210.253906 154.714844 C 201.378906 154.292969 192.511719 154.679688 183.75 155.894531 Z M 180.042969 130.160156 L 177.894531 115.246094 C 181.042969 114.820312 184.246094 114.542969 187.484375 114.445312 C 191.320312 119.214844 194.808594 124.179688 197.953125 129.3125 C 192.058594 129.0625 186.070312 129.339844 180.042969 130.160156 Z M 177.667969 113.664062 L 176.695312 106.925781 C 177.980469 106.753906 179.273438 106.609375 180.578125 106.488281 C 182.53125 108.585938 184.425781 110.71875 186.238281 112.90625 C 183.347656 113.03125 180.484375 113.285156 177.667969 113.664062 Z M 176.46875 105.347656 L 175.949219 101.742188 C 177.050781 102.820312 178.144531 103.90625 179.203125 105.011719 C 178.285156 105.105469 177.375 105.226562 176.46875 105.347656 Z M 174.890625 105.574219 C 173.980469 105.714844 173.074219 105.859375 172.167969 106.023438 C 172.875 104.664062 173.617188 103.316406 174.371094 101.972656 Z M 175.117188 107.15625 L 176.085938 113.894531 C 173.277344 114.324219 170.460938 114.890625 167.652344 115.585938 C 168.769531 112.976562 169.984375 110.394531 171.269531 107.828125 C 172.550781 107.578125 173.835938 107.351562 175.117188 107.15625 Z M 176.316406 115.472656 L 178.464844 130.386719 C 172.449219 131.300781 166.628906 132.726562 161.042969 134.628906 C 162.609375 128.820312 164.554688 123.070312 166.886719 117.414062 C 170.023438 116.59375 173.171875 115.953125 176.316406 115.472656 Z M 178.691406 131.964844 L 182.171875 156.121094 C 173.425781 157.429688 164.808594 159.5625 156.414062 162.472656 C 156.976562 153.765625 158.375 145.070312 160.5625 136.492188 C 166.359375 134.445312 172.417969 132.921875 178.691406 131.964844 Z M 182.398438 157.703125 L 186.597656 186.824219 L 157.472656 191.019531 C 156.246094 182.152344 155.867188 173.171875 156.335938 164.1875 C 164.820312 161.203125 173.546875 159.027344 182.398438 157.703125 Z M 155.894531 191.25 L 131.738281 194.730469 C 130.882812 188.441406 130.636719 182.199219 130.960938 176.0625 C 138.570312 171.539062 146.519531 167.746094 154.714844 164.746094 C 154.292969 173.617188 154.679688 182.488281 155.894531 191.25 Z M 130.15625 194.957031 L 115.242188 197.105469 C 114.816406 193.953125 114.542969 190.753906 114.445312 187.511719 C 119.210938 183.679688 124.179688 180.191406 129.308594 177.046875 C 129.0625 182.941406 129.335938 188.929688 130.15625 194.957031 Z M 113.664062 197.332031 L 106.925781 198.304688 C 106.753906 197.019531 106.609375 195.726562 106.488281 194.421875 C 108.585938 192.46875 110.71875 190.570312 112.90625 188.761719 C 113.03125 191.652344 113.285156 194.515625 113.664062 197.332031 Z M 105.347656 198.53125 L 101.742188 199.050781 C 102.820312 197.949219 103.902344 196.855469 105.007812 195.796875 C 105.105469 196.710938 105.222656 197.621094 105.347656 198.53125 Z M 105.574219 200.109375 C 105.710938 201.015625 105.855469 201.921875 106.023438 202.828125 C 104.664062 202.125 103.316406 201.382812 101.972656 200.628906 Z M 107.152344 199.882812 L 113.890625 198.914062 C 114.320312 201.722656 114.886719 204.539062 115.585938 207.347656 C 112.976562 206.226562 110.390625 205.011719 107.828125 203.730469 C 107.574219 202.445312 107.351562 201.164062 107.152344 199.882812 Z M 115.472656 198.683594 L 130.386719 196.535156 C 131.300781 202.550781 132.726562 208.371094 134.628906 213.957031 C 128.816406 212.390625 123.070312 210.441406 117.410156 208.109375 C 116.59375 204.976562 115.953125 201.828125 115.472656 198.683594 Z M 131.964844 196.308594 L 156.121094 192.828125 C 157.429688 201.574219 159.5625 210.191406 162.472656 218.582031 C 153.761719 218.019531 145.066406 216.625 136.488281 214.433594 C 134.445312 208.636719 132.917969 202.582031 131.964844 196.308594 Z M 157.699219 192.601562 L 186.824219 188.402344 L 191.019531 217.523438 C 182.152344 218.753906 173.167969 219.128906 164.1875 218.660156 C 161.199219 210.175781 159.027344 201.453125 157.699219 192.601562 Z M 191.246094 219.105469 L 194.726562 243.261719 C 188.441406 244.117188 182.199219 244.363281 176.058594 244.039062 C 171.535156 236.425781 167.742188 228.480469 164.746094 220.28125 C 173.617188 220.707031 182.488281 220.320312 191.246094 219.105469 Z M 194.957031 244.839844 L 197.105469 259.753906 C 193.953125 260.179688 190.75 260.457031 187.511719 260.554688 C 183.675781 255.785156 180.1875 250.820312 177.042969 245.6875 C 182.9375 245.9375 188.925781 245.664062 194.957031 244.839844 Z M 197.332031 261.335938 L 198.304688 268.074219 C 197.019531 268.246094 195.722656 268.390625 194.421875 268.511719 C 192.464844 266.414062 190.570312 264.277344 188.761719 262.09375 C 191.652344 261.96875 194.511719 261.714844 197.332031 261.335938 Z M 198.53125 269.652344 L 199.050781 273.257812 C 197.949219 272.179688 196.855469 271.097656 195.792969 269.988281 C 196.710938 269.894531 197.621094 269.773438 198.53125 269.652344 Z M 200.109375 269.425781 C 201.015625 269.285156 201.921875 269.140625 202.828125 268.976562 C 202.125 270.335938 201.378906 271.683594 200.628906 273.027344 Z M 199.882812 267.84375 L 198.910156 261.105469 C 201.722656 260.675781 204.539062 260.109375 207.347656 259.414062 C 206.226562 262.023438 205.011719 264.605469 203.730469 267.171875 C 202.445312 267.421875 201.164062 267.648438 199.882812 267.84375 Z M 198.683594 259.527344 L 196.535156 244.613281 C 202.550781 243.699219 208.371094 242.273438 213.957031 240.371094 C 212.386719 246.179688 210.441406 251.929688 208.109375 257.585938 C 204.976562 258.40625 201.828125 259.046875 198.683594 259.527344 Z M 196.308594 243.035156 L 192.828125 218.878906 C 201.570312 217.570312 210.191406 215.4375 218.582031 212.527344 C 218.019531 221.238281 216.625 229.929688 214.433594 238.511719 C 208.636719 240.554688 202.582031 242.078125 196.308594 243.035156 Z M 192.597656 217.296875 L 188.402344 188.175781 L 217.523438 183.980469 C 218.75 192.847656 219.128906 201.832031 218.660156 210.8125 C 210.175781 213.796875 201.453125 215.972656 192.597656 217.296875 Z M 219.105469 183.753906 L 243.261719 180.273438 C 244.117188 186.558594 244.363281 192.800781 244.039062 198.9375 C 236.425781 203.460938 228.480469 207.257812 220.28125 210.253906 C 220.707031 201.382812 220.316406 192.511719 219.105469 183.753906 Z M 244.839844 180.042969 L 259.753906 177.894531 C 260.179688 181.046875 260.457031 184.25 260.554688 187.488281 C 255.785156 191.320312 250.820312 194.8125 245.6875 197.957031 C 245.9375 192.058594 245.660156 186.070312 244.839844 180.042969 Z M 261.332031 177.667969 L 268.070312 176.695312 C 268.246094 177.980469 268.390625 179.277344 268.511719 180.578125 C 266.414062 182.535156 264.277344 184.429688 262.089844 186.238281 C 261.964844 183.347656 261.714844 180.488281 261.332031 177.667969 Z M 269.652344 176.46875 L 273.257812 175.949219 C 272.175781 177.050781 271.09375 178.144531 269.988281 179.207031 C 269.890625 178.289062 269.773438 177.378906 269.652344 176.46875 Z M 268.574219 170.1875 C 268.234375 168.535156 267.859375 166.886719 267.425781 165.238281 C 269.378906 167.566406 271.242188 169.992188 273 172.535156 C 271.53125 171.726562 270.058594 170.941406 268.574219 170.1875 Z M 266.757812 169.285156 C 264.164062 168.011719 261.550781 166.800781 258.910156 165.699219 C 257.671875 161.109375 256.074219 156.558594 254.121094 152.117188 C 257.96875 155.234375 261.59375 158.679688 264.972656 162.417969 C 265.65625 164.699219 266.253906 166.988281 266.757812 169.285156 Z M 237.859375 158.75 C 229.308594 156.632812 220.644531 155.308594 211.96875 154.789062 C 209.023438 146.613281 205.304688 138.675781 200.859375 131.070312 C 209.464844 131.695312 217.84375 133.464844 225.816406 136.277344 C 230.765625 143.132812 234.832031 150.671875 237.859375 158.75 Z M 188.253906 112.835938 C 186.449219 110.617188 184.550781 108.453125 182.597656 106.320312 C 184.941406 106.15625 187.308594 106.082031 189.6875 106.097656 C 194.226562 108.285156 198.554688 110.789062 202.632812 113.597656 C 197.820312 112.976562 193.003906 112.730469 188.253906 112.835938 Z M 181.214844 104.835938 C 180.074219 103.625 178.90625 102.433594 177.71875 101.253906 C 180.652344 102.222656 183.503906 103.324219 186.289062 104.539062 C 184.585938 104.589844 182.898438 104.695312 181.214844 104.835938 Z M 170.1875 106.421875 C 168.535156 106.761719 166.886719 107.140625 165.238281 107.570312 C 167.566406 105.621094 169.992188 103.757812 172.53125 102 C 171.726562 103.464844 170.941406 104.941406 170.1875 106.421875 Z M 169.285156 108.238281 C 168.011719 110.835938 166.800781 113.449219 165.695312 116.085938 C 161.109375 117.328125 156.558594 118.921875 152.117188 120.878906 C 155.234375 117.03125 158.679688 113.40625 162.417969 110.023438 C 164.699219 109.339844 166.988281 108.742188 169.285156 108.238281 Z M 158.75 137.136719 C 156.632812 145.691406 155.308594 154.355469 154.789062 163.027344 C 146.613281 165.976562 138.675781 169.695312 131.070312 174.140625 C 131.695312 165.53125 133.464844 157.15625 136.277344 149.179688 C 143.132812 144.230469 150.671875 140.167969 158.75 137.136719 Z M 112.835938 186.746094 C 110.617188 188.550781 108.449219 190.449219 106.320312 192.402344 C 106.15625 190.058594 106.082031 187.691406 106.09375 185.316406 C 108.28125 180.773438 110.789062 176.445312 113.597656 172.367188 C 112.976562 177.179688 112.730469 181.996094 112.835938 186.746094 Z M 104.832031 193.78125 C 103.625 194.921875 102.429688 196.089844 101.253906 197.28125 C 102.222656 194.347656 103.324219 191.496094 104.539062 188.710938 C 104.589844 190.414062 104.691406 192.101562 104.832031 193.78125 Z M 106.421875 204.808594 C 106.761719 206.460938 107.140625 208.113281 107.570312 209.757812 C 105.621094 207.429688 103.757812 205.003906 102 202.464844 C 103.464844 203.273438 104.9375 204.058594 106.421875 204.808594 Z M 108.238281 205.714844 C 110.832031 206.984375 113.445312 208.195312 116.085938 209.300781 C 117.328125 213.890625 118.921875 218.4375 120.875 222.878906 C 117.03125 219.761719 113.402344 216.316406 110.023438 212.578125 C 109.339844 210.300781 108.742188 208.011719 108.238281 205.714844 Z M 137.136719 216.246094 C 145.691406 218.363281 154.351562 219.691406 163.027344 220.210938 C 165.976562 228.386719 169.691406 236.320312 174.136719 243.929688 C 165.53125 243.304688 157.152344 241.53125 149.179688 238.71875 C 144.230469 231.863281 140.167969 224.328125 137.136719 216.246094 Z M 186.742188 262.164062 C 188.550781 264.382812 190.449219 266.546875 192.402344 268.679688 C 190.054688 268.84375 187.691406 268.917969 185.3125 268.902344 C 180.769531 266.714844 176.441406 264.210938 172.363281 261.402344 C 177.179688 262.019531 181.992188 262.265625 186.742188 262.164062 Z M 193.78125 270.164062 C 194.921875 271.375 196.089844 272.570312 197.277344 273.746094 C 194.347656 272.777344 191.492188 271.675781 188.707031 270.460938 C 190.410156 270.410156 192.101562 270.304688 193.78125 270.164062 Z M 204.808594 268.578125 C 206.460938 268.238281 208.113281 267.859375 209.757812 267.429688 C 207.429688 269.378906 205.003906 271.242188 202.464844 273 C 203.273438 271.535156 204.058594 270.058594 204.808594 268.578125 Z M 205.714844 266.761719 C 206.984375 264.164062 208.195312 261.554688 209.300781 258.914062 C 213.886719 257.671875 218.4375 256.078125 222.878906 254.121094 C 219.761719 257.96875 216.316406 261.59375 212.578125 264.976562 C 210.300781 265.660156 208.007812 266.257812 205.714844 266.761719 Z M 216.246094 237.863281 C 218.363281 229.308594 219.6875 220.644531 220.207031 211.972656 C 228.382812 209.023438 236.320312 205.304688 243.929688 200.863281 C 243.300781 209.46875 241.53125 217.847656 238.71875 225.820312 C 231.863281 230.769531 224.328125 234.832031 216.246094 237.863281 Z M 262.160156 188.253906 C 264.382812 186.449219 266.546875 184.550781 268.679688 182.597656 C 268.84375 184.945312 268.914062 187.308594 268.902344 189.6875 C 266.714844 194.230469 264.210938 198.558594 261.398438 202.636719 C 262.019531 197.820312 262.265625 193.007812 262.160156 188.253906 Z M 270.164062 181.21875 C 271.375 180.078125 272.566406 178.910156 273.746094 177.71875 C 272.777344 180.652344 271.675781 183.507812 270.460938 186.292969 C 270.410156 184.589844 270.304688 182.898438 270.164062 181.21875 Z M 266.40625 161.621094 C 265.257812 157.851562 263.875 154.117188 262.246094 150.460938 C 266.148438 155.941406 269.574219 162.113281 272.414062 168.984375 C 270.515625 166.414062 268.503906 163.964844 266.40625 161.621094 Z M 263.828125 158.859375 C 260.332031 155.25 256.597656 151.9375 252.660156 148.945312 C 249.09375 141.589844 244.523438 134.59375 238.953125 128.273438 C 245.628906 132.53125 251.855469 137.816406 257.371094 144.226562 C 259.960938 148.949219 262.109375 153.859375 263.828125 158.859375 Z M 249.824219 146.871094 C 242.703125 141.863281 234.976562 137.859375 226.820312 134.9375 C 221.714844 127.941406 215.691406 121.65625 208.878906 116.242188 C 217.5 117.976562 226.007812 120.972656 234 125.339844 C 240.445312 131.773438 245.722656 139.089844 249.824219 146.871094 Z M 206.089844 114.105469 C 202.105469 111.167969 197.875 108.523438 193.421875 106.191406 C 198.707031 106.425781 204.023438 107.101562 209.28125 108.25 C 216.988281 111.734375 223.816406 116.214844 229.785156 121.414062 C 222.152344 117.859375 214.148438 115.445312 206.089844 114.105469 Z M 190.046875 104.5 C 187.207031 103.144531 184.289062 101.910156 181.289062 100.8125 C 188.683594 101.597656 195.566406 103.140625 201.921875 105.335938 C 197.957031 104.804688 193.988281 104.53125 190.046875 104.5 Z M 161.625 108.59375 C 157.851562 109.738281 154.117188 111.125 150.464844 112.75 C 155.945312 108.847656 162.109375 105.425781 168.984375 102.585938 C 166.414062 104.484375 163.964844 106.492188 161.625 108.59375 Z M 158.859375 111.167969 C 155.25 114.667969 151.9375 118.398438 148.945312 122.339844 C 141.589844 125.902344 134.59375 130.476562 128.273438 136.046875 C 132.53125 129.371094 137.816406 123.140625 144.226562 117.625 C 148.949219 115.035156 153.859375 112.886719 158.859375 111.167969 Z M 146.871094 125.175781 C 141.863281 132.292969 137.859375 140.023438 134.9375 148.179688 C 127.9375 153.285156 121.65625 159.308594 116.238281 166.121094 C 117.972656 157.5 120.972656 148.992188 125.335938 141 C 131.773438 134.554688 139.089844 129.273438 146.871094 125.175781 Z M 114.105469 168.910156 C 111.167969 172.894531 108.523438 177.125 106.1875 181.578125 C 106.425781 176.296875 107.097656 170.976562 108.25 165.71875 C 111.730469 158.011719 116.214844 151.183594 121.414062 145.214844 C 117.859375 152.847656 115.445312 160.851562 114.105469 168.910156 Z M 104.496094 184.953125 C 103.144531 187.792969 101.910156 190.710938 100.8125 193.710938 C 101.597656 186.316406 103.140625 179.4375 105.332031 173.078125 C 104.804688 177.042969 104.53125 181.015625 104.496094 184.953125 Z M 108.59375 213.375 C 109.738281 217.144531 111.121094 220.875 112.746094 224.53125 C 108.847656 219.050781 105.425781 212.886719 102.585938 206.015625 C 104.484375 208.582031 106.492188 211.035156 108.59375 213.375 Z M 111.167969 216.136719 C 114.664062 219.746094 118.398438 223.058594 122.335938 226.050781 C 125.898438 233.40625 130.472656 240.402344 136.039062 246.722656 C 129.367188 242.464844 123.136719 237.179688 117.621094 230.765625 C 115.03125 226.046875 112.886719 221.136719 111.167969 216.136719 Z M 125.171875 228.125 C 132.292969 233.132812 140.019531 237.136719 148.175781 240.0625 C 153.28125 247.058594 159.304688 253.34375 166.121094 258.757812 C 157.496094 257.023438 148.988281 254.023438 140.992188 249.660156 C 134.550781 243.222656 129.269531 235.90625 125.171875 228.125 Z M 168.910156 260.894531 C 172.890625 263.828125 177.121094 266.476562 181.574219 268.808594 C 176.292969 268.574219 170.972656 267.898438 165.714844 266.75 C 158.007812 263.265625 151.175781 258.78125 145.207031 253.582031 C 152.84375 257.140625 160.847656 259.550781 168.910156 260.894531 Z M 184.953125 270.5 C 187.789062 271.855469 190.707031 273.089844 193.707031 274.1875 C 186.3125 273.402344 179.429688 271.859375 173.070312 269.664062 C 177.039062 270.191406 181.011719 270.46875 184.953125 270.5 Z M 213.375 266.40625 C 217.144531 265.261719 220.878906 263.878906 224.53125 262.25 C 219.050781 266.152344 212.886719 269.574219 206.015625 272.414062 C 208.582031 270.515625 211.035156 268.507812 213.375 266.40625 Z M 216.136719 263.832031 C 219.746094 260.335938 223.0625 256.601562 226.050781 252.660156 C 233.40625 249.097656 240.402344 244.527344 246.722656 238.957031 C 242.464844 245.632812 237.179688 251.859375 230.769531 257.375 C 226.046875 259.964844 221.136719 262.113281 216.136719 263.832031 Z M 228.125 249.824219 C 233.132812 242.707031 237.136719 234.976562 240.0625 226.824219 C 247.058594 221.71875 253.34375 215.695312 258.757812 208.878906 C 257.023438 217.503906 254.023438 226.011719 249.65625 234.003906 C 243.222656 240.449219 235.90625 245.726562 228.125 249.824219 Z M 260.890625 206.089844 C 263.828125 202.109375 266.472656 197.878906 268.808594 193.425781 C 268.574219 198.710938 267.898438 204.027344 266.746094 209.289062 C 263.265625 216.992188 258.78125 223.824219 253.582031 229.792969 C 257.136719 222.15625 259.550781 214.152344 260.890625 206.089844 Z M 270.5 190.050781 C 271.855469 187.210938 273.089844 184.292969 274.1875 181.289062 C 273.402344 188.6875 271.859375 195.570312 269.664062 201.929688 C 270.191406 197.964844 270.464844 193.992188 270.5 190.050781 Z M 258.6875 143.285156 C 255.585938 137.652344 251.871094 132.296875 247.558594 127.363281 C 257.132812 135.808594 265.144531 146.925781 270.507812 161.003906 C 267.105469 154.363281 263.125 148.464844 258.6875 143.285156 Z M 253.394531 137.652344 C 247.75 132.15625 241.53125 127.644531 234.96875 124.042969 C 229.660156 118.765625 223.578125 114.074219 216.710938 110.210938 C 224.097656 112.492188 231.265625 115.761719 237.941406 120.078125 C 243.964844 125.261719 249.121094 131.210938 253.394531 137.652344 Z M 209.8125 106.726562 C 203.589844 103.929688 196.8125 101.777344 189.480469 100.390625 C 204.5 101.558594 217.425781 106.105469 228.230469 112.90625 C 222.28125 110.160156 216.089844 108.109375 209.8125 106.726562 Z M 143.289062 116.3125 C 137.65625 119.414062 132.296875 123.128906 127.363281 127.441406 C 135.808594 117.867188 146.925781 109.855469 161.003906 104.492188 C 154.363281 107.894531 148.464844 111.871094 143.289062 116.3125 Z M 137.652344 121.601562 C 132.15625 127.25 127.644531 133.46875 124.039062 140.027344 C 118.765625 145.339844 114.074219 151.421875 110.207031 158.289062 C 112.492188 150.902344 115.757812 143.734375 120.074219 137.058594 C 125.261719 131.035156 131.210938 125.878906 137.652344 121.601562 Z M 106.722656 165.1875 C 103.929688 171.410156 101.777344 178.1875 100.390625 185.515625 C 101.558594 170.5 106.101562 157.574219 112.902344 146.769531 C 110.160156 152.71875 108.109375 158.910156 106.722656 165.1875 Z M 116.308594 231.707031 C 119.410156 237.339844 123.125 242.699219 127.4375 247.632812 C 117.863281 239.1875 109.851562 228.070312 104.492188 213.996094 C 107.890625 220.632812 111.871094 226.527344 116.308594 231.707031 Z M 121.597656 237.339844 C 127.246094 242.839844 133.460938 247.351562 140.023438 250.957031 C 145.335938 256.230469 151.414062 260.921875 158.285156 264.789062 C 150.898438 262.503906 143.730469 259.238281 137.054688 254.921875 C 131.03125 249.734375 125.875 243.78125 121.597656 237.339844 Z M 165.183594 268.273438 C 171.40625 271.070312 178.183594 273.222656 185.515625 274.609375 C 170.492188 273.441406 157.566406 268.894531 146.761719 262.089844 C 152.710938 264.835938 158.902344 266.886719 165.183594 268.273438 Z M 231.707031 258.691406 C 237.339844 255.589844 242.699219 251.875 247.632812 247.5625 C 239.1875 257.136719 228.070312 265.148438 213.992188 270.507812 C 220.632812 267.109375 226.53125 263.128906 231.707031 258.691406 Z M 237.34375 253.402344 C 242.839844 247.753906 247.347656 241.535156 250.953125 234.976562 C 256.230469 229.664062 260.921875 223.585938 264.789062 216.71875 C 262.503906 224.101562 259.234375 231.269531 254.921875 237.945312 C 249.734375 243.96875 243.78125 249.125 237.34375 253.402344 Z M 268.273438 209.816406 C 271.070312 203.597656 273.222656 196.816406 274.609375 189.484375 C 273.441406 204.507812 268.894531 217.433594 262.089844 228.242188 C 264.835938 222.289062 266.886719 216.097656 268.273438 209.816406 Z M 266.792969 149.097656 C 259.652344 135.945312 249.957031 125.9375 238.90625 118.777344 C 228.914062 110.199219 216.570312 103.722656 201.9375 100.589844 C 230.039062 105.277344 254.355469 123.464844 266.792969 149.097656 Z M 149.085938 108.214844 C 135.941406 115.351562 125.9375 125.046875 118.777344 136.09375 C 110.203125 146.082031 103.726562 158.414062 100.59375 173.042969 C 105.285156 144.953125 123.464844 120.648438 149.085938 108.214844 Z M 108.207031 225.902344 C 115.347656 239.050781 125.039062 249.054688 136.085938 256.214844 C 146.070312 264.792969 158.40625 271.269531 173.03125 274.40625 C 144.941406 269.707031 120.640625 251.527344 108.207031 225.902344 Z M 225.890625 266.796875 C 239.042969 259.660156 249.054688 249.964844 256.214844 238.914062 C 264.796875 228.921875 271.273438 216.582031 274.410156 201.949219 C 269.71875 230.050781 251.527344 254.363281 225.890625 266.796875 Z M 225.890625 266.796875 " fill-opacity="1" fill-rule="nonzero"/></g></g></g><g clip-path="url(#e5a38d61ea)"><g clip-path="url(#c0b9a64da5)"><g clip-path="url(#5433eba331)"><path fill="#c686ab" d="M 245.125 203.496094 C 225.480469 211.570312 206.082031 216.839844 188.378906 219.355469 C 200.101562 216.496094 212.265625 212.550781 224.53125 207.507812 C 285.996094 182.238281 326.5 139.058594 314.992188 111.0625 C 307.164062 92.023438 277.277344 84.917969 239.601562 90.273438 C 286.628906 78.765625 326.375 84.644531 335.589844 107.0625 C 347.09375 135.046875 306.59375 178.222656 245.125 203.496094 Z M 203.117188 95.441406 L 202.949219 95.03125 C 227.488281 84.945312 227.628906 80.230469 218.441406 57.882812 L 218.851562 57.714844 C 228.042969 80.0625 231.46875 83.308594 256.007812 73.21875 L 256.175781 73.628906 C 231.636719 83.71875 231.480469 88.421875 240.667969 110.773438 L 240.257812 110.941406 C 231.066406 88.59375 227.65625 85.355469 203.117188 95.441406 " fill-opacity="1" fill-rule="evenodd"/></g></g></g><g clip-path="url(#51a81868c6)"><g clip-path="url(#2a81de5fd7)"><g clip-path="url(#f554972847)"><path fill="#c686ab" d="M 125.089844 176.875 C 143.914062 167.03125 162.746094 160.007812 180.144531 155.878906 C 168.734375 159.800781 156.980469 164.847656 145.230469 170.992188 C 86.339844 201.789062 49.964844 248.496094 63.992188 275.320312 C 73.53125 293.5625 103.945312 297.898438 140.96875 289.113281 C 95.195312 304.882812 55.078125 302.671875 43.84375 281.191406 C 29.824219 254.378906 66.199219 207.671875 125.089844 176.875 Z M 176.824219 280.621094 L 177.03125 281.015625 C 153.519531 293.308594 153.8125 298.015625 165.007812 319.429688 L 164.613281 319.632812 C 153.417969 298.222656 149.707031 295.304688 126.195312 307.601562 L 125.988281 307.207031 C 149.5 294.910156 149.226562 290.210938 138.03125 268.796875 L 138.421875 268.59375 C 149.621094 290.003906 153.316406 292.917969 176.824219 280.621094 " fill-opacity="1" fill-rule="evenodd"/></g></g></g><path stroke-linecap="butt" transform="matrix(0.749824, -0.016255, 0.016255, 0.749824, 103.643597, 167.053789)" fill="none" stroke-linejoin="miter" d="M 28.863022 66.527806 C 25.996446 67.309611 23.058182 67.553278 20.038044 67.248167 C 17.017567 66.958676 14.196398 66.126503 11.579745 64.75176 C 8.958224 63.361283 6.779842 61.475085 5.054902 59.0986 C 3.56939 56.972154 2.414056 54.514245 1.594108 51.724985 C 0.774498 48.920104 0.276021 45.960688 0.109092 42.846964 C -0.0629315 39.727919 0.0760041 36.68334 0.525899 33.713226 C 1.312545 28.66659 2.978333 24.399607 5.528244 20.922805 C 8.073287 17.430269 11.251511 15.008999 15.057708 13.658884 C 18.874659 12.293372 23.084375 12.275232 27.681648 13.604349 C 30.752645 14.447148 33.14844 15.676445 34.874466 17.281939 C 36.605699 18.887546 37.837628 20.695921 38.57048 22.69665 C 39.318839 24.702924 39.770055 26.718385 39.9136 28.748015 C 40.072766 30.777983 40.100273 32.633182 40.001327 34.313724 C 39.95455 35.750548 39.087165 36.591321 37.394079 36.830724 L 27.374611 37.139683 C 26.638038 37.233116 25.986119 37.02623 25.419192 36.503403 C 24.852153 35.985783 24.542971 35.348724 24.496627 34.602753 C 24.492535 34.310929 24.451752 33.789089 24.369297 33.026706 C 24.297483 32.254135 24.152656 31.485191 23.934704 30.72508 C 23.717091 29.949348 23.358787 29.415415 22.865226 29.11298 C 21.378785 28.471238 20.239797 28.623672 19.43796 29.564848 C 18.656952 30.506475 18.114145 31.99506 17.809766 34.020189 C 17.505273 36.050525 17.35588 38.375959 17.356378 40.996377 L 17.358891 41.361101 C 17.357357 44.075247 17.735688 46.328768 18.499203 48.116569 C 19.273358 49.894182 20.164186 51.096063 21.182099 51.722439 C 22.195031 52.338287 23.134794 52.24405 24.006709 51.434632 C 24.873755 50.60948 25.430927 48.938871 25.673243 46.412279 C 25.670392 46.063177 25.502283 45.887617 25.163595 45.890694 L 23.079848 45.887198 C 22.39217 45.887919 22.050518 45.547101 22.04991 44.854217 L 22.048141 41.811797 C 22.047646 41.113705 22.393897 40.761752 23.081574 40.761031 L 40.148082 40.761128 C 40.83576 40.760407 41.182393 41.111752 41.182775 41.815051 C 41.179199 46.305612 40.817883 50.236205 40.093621 53.606716 C 39.379999 56.967039 38.137367 59.737633 36.360406 61.923592 C 34.588877 64.09925 32.086278 65.633913 28.863022 66.527806 Z M 28.863022 66.527806 " stroke="#ffffff" stroke-width="11.317711" stroke-opacity="1" stroke-miterlimit="4"/><path stroke-linecap="butt" transform="matrix(0.745999, -0.077366, 0.077366, 0.745999, 137.187036, 165.985844)" fill="none" stroke-linejoin="miter" d="M 16.32661 65.99783 L 2.827168 66.001151 C 2.07829 66.002031 1.418097 65.703168 0.851232 65.11028 C 0.28383 64.522573 -0.0023638 63.848832 0.00193724 63.100491 L 0.147261 16.863611 C 0.144617 16.030771 0.415083 15.341451 0.958122 14.800834 C 1.501698 14.255037 2.173828 13.984385 2.969867 13.98316 L 17.210128 14.056668 C 17.959005 14.055788 18.641532 14.341258 19.258246 14.907898 C 19.874959 15.474538 20.157392 16.184543 20.1118 17.02809 L 19.22443 63.098998 C 19.225118 63.900218 18.939647 64.582745 18.3732 65.147115 C 17.801034 65.716129 17.122112 66.001786 16.32661 65.99783 Z M 16.32661 65.99783 " stroke="#ffffff" stroke-width="11.317711" stroke-opacity="1" stroke-miterlimit="4"/><path stroke-linecap="butt" transform="matrix(0.736924, -0.139437, 0.139437, 0.736924, 154.843794, 164.499277)" fill="none" stroke-linejoin="miter" d="M 39.480642 66.362591 C 38.042887 66.313178 36.319378 66.289209 34.315234 66.29165 C 32.322292 66.29091 29.937097 66.290161 27.159649 66.289403 C 26.375142 66.289384 25.733102 66.040683 25.237679 65.549386 C 24.743225 65.052971 24.270766 64.412297 23.825419 63.628333 L 19.294415 53.537099 L 17.879619 53.534437 L 18.191009 62.954478 C 18.285594 63.799291 18.03454 64.509795 17.429549 65.073818 C 16.838942 65.645863 16.22386 65.927037 15.582368 65.927575 L 2.661235 66.000569 C 1.972716 65.997509 1.384481 65.716583 0.887262 65.150735 C 0.391011 64.57977 0.143864 63.896917 0.145819 63.102175 L 0.000880783 16.719707 C -0.00117726 16.030221 0.259695 15.379883 0.779349 14.762608 C 1.299003 14.145332 1.87605 13.841059 2.517542 13.840522 L 13.061362 13.83718 C 16.962876 13.780289 20.544609 13.816614 23.806563 13.946153 C 27.080688 14.067393 29.968776 14.491943 32.466678 15.213717 C 34.965548 15.930373 37.045735 17.150891 38.702121 18.874301 C 40.352421 20.601861 41.532442 23.077956 42.230979 26.305766 C 42.475624 27.534123 42.679183 29.035646 42.84968 30.79595 C 43.027231 32.546988 43.067712 34.378105 42.955771 36.286396 C 42.862088 38.18224 42.586803 40.001316 42.141119 41.740444 C 41.708575 43.466156 41.018639 44.899331 40.077396 46.03582 C 38.832825 47.570779 37.348428 48.832428 35.619086 49.819798 C 36.416971 51.401971 37.305306 53.234491 38.279943 55.311273 C 39.2709 57.385843 40.464753 59.816848 41.853203 62.592117 C 42.444736 63.780095 42.553565 64.717717 42.176785 65.420334 C 41.813146 66.109535 40.91646 66.422238 39.480642 66.362591 Z M 17.211427 30.816217 L 17.447893 38.531142 L 21.14166 38.535657 C 22.881214 38.530858 24.216075 38.115539 25.147214 37.284581 C 26.091492 36.440208 26.584875 35.457511 26.630545 34.347694 C 26.692536 33.235665 26.204317 32.258062 25.165889 31.414886 C 24.669358 31.013492 23.690941 30.833662 22.231608 30.87028 C 20.769093 30.895694 19.097728 30.87629 17.211427 30.816217 Z M 17.211427 30.816217 " stroke="#ffffff" stroke-width="11.317711" stroke-opacity="1" stroke-miterlimit="4"/><path stroke-linecap="butt" transform="matrix(0.720601, -0.207927, 0.207927, 0.720601, 188.748069, 157.841195)" fill="none" stroke-linejoin="miter" d="M 2.516691 66.001818 C 1.877104 66.001576 1.284021 65.727448 0.741002 65.185883 C 0.249369 64.691671 0.0000752506 63.996344 -0.00187557 63.101346 L 0.145469 16.356766 C 0.146582 15.657802 0.415904 14.987441 0.958438 14.347127 C 1.50299 13.756182 2.071096 13.459337 2.662757 13.456593 L 15.147397 13.530037 C 15.834909 13.533267 16.450896 13.803162 16.993916 14.344726 C 17.487566 14.888308 17.736859 15.583635 17.736793 16.429264 L 18.480547 49.076636 L 26.724598 49.531036 C 27.509879 49.627527 28.173793 49.900409 28.717782 50.344678 C 29.306709 50.83986 29.603554 51.407967 29.603311 52.047554 L 29.531995 63.172181 C 29.529437 63.876149 29.258098 64.497141 28.716534 65.040161 C 28.172952 65.53381 27.477625 65.783104 26.631996 65.783038 L 11.287768 66.001158 C 11.179021 66.002304 11.050257 65.997675 10.908597 66.000166 C 10.761932 66.001213 10.638944 65.976567 10.544636 65.927672 Z M 2.516691 66.001818 " stroke="#ffffff" stroke-width="11.317711" stroke-opacity="1" stroke-miterlimit="4"/><path stroke-linecap="butt" transform="matrix(0.706463, -0.251814, 0.251814, 0.706463, 213.233604, 150.541322)" fill="none" stroke-linejoin="miter" d="M 6.086278 28.441495 C 5.05179 28.598042 4.143501 28.307464 3.371224 27.573257 C 2.609099 26.826082 2.402568 25.978362 2.754787 25.036752 L 3.33225 23.478735 C 3.536897 22.982162 3.504452 22.638839 3.225103 22.445268 C 2.960812 22.240477 2.628177 21.994737 2.228947 21.703142 C 0.742048 20.553863 0.000427427 18.973541 0.00092845 16.955522 C 0.00157344 15.169785 0.590985 13.671322 1.77407 12.461879 C 2.972213 11.241216 4.482198 10.634875 6.302617 10.631294 C 7.440907 10.633391 8.49317 10.892349 9.457657 11.413073 C 10.423893 11.92889 11.176838 12.562208 11.721399 13.314773 C 12.21588 14.099252 12.588486 14.961934 12.827659 15.904229 C 13.083299 16.846864 13.086303 17.738153 12.844737 18.586502 C 12.49407 19.771955 11.897908 21.118721 11.051343 22.625052 C 10.219497 24.136629 9.343741 25.461146 8.425824 26.593698 C 7.506158 27.731155 6.729111 28.3444 6.086278 28.441495 Z M 6.086278 28.441495 " stroke="#ffffff" stroke-width="11.317711" stroke-opacity="1" stroke-miterlimit="4"/><path stroke-linecap="butt" transform="matrix(0.686186, -0.302736, 0.302736, 0.686186, 225.3316, 146.598346)" fill="none" stroke-linejoin="miter" d="M 2.592002 66.745251 C 1.806167 66.552253 1.27359 66.146506 0.994271 65.528009 C 0.730789 64.899421 0.598632 64.140912 0.599901 63.247718 L 0.60014 52.266602 C 0.599168 51.326877 1.064901 50.68414 1.993137 50.347922 C 2.934547 49.994745 4.114916 49.809613 5.526816 49.783558 C 6.936614 49.762267 8.379347 49.795356 9.839178 49.892916 C 11.299009 49.990475 12.517498 50.015714 13.496747 49.963866 C 15.189794 49.868297 16.329941 49.477561 16.924055 48.788996 C 17.512844 48.086695 17.54873 47.282778 17.031714 46.377246 C 16.514138 45.460081 15.412123 44.706329 13.732536 44.113327 C 10.571119 42.917795 7.970174 41.690593 5.943995 40.438029 C 3.914593 39.166964 2.418755 37.692963 1.451715 36.013923 C 0.484676 34.334883 0.00214765 32.306026 -0.000633963 29.92525 C -0.00103037 27.255198 0.382169 24.851159 1.143639 22.699399 C 1.916742 20.547079 3.341553 18.659513 5.415409 17.029834 C 6.806436 15.941419 8.413436 15.124763 10.236409 14.579865 C 12.07522 14.024877 13.992794 13.652648 15.996001 13.460516 C 18.00131 13.26362 19.893655 13.142124 21.668271 13.093928 C 22.514234 13.03451 23.762716 13.004669 25.418482 13.006506 C 27.074247 13.008343 28.799949 13.058113 30.600912 13.16955 C 32.41505 13.26403 34.027367 13.428864 35.439966 13.659288 C 36.852004 13.878079 37.726975 14.178715 38.06488 14.561195 C 38.364103 14.915224 38.566479 15.437155 38.660936 16.139182 C 38.7617 16.826913 38.795606 18.014568 38.773727 19.689955 C 38.749746 21.370108 38.712863 23.944015 38.663077 27.411676 C 38.660538 29.198064 37.600554 30.090969 35.471492 30.09095 C 34.338216 30.09192 33.063106 30.053087 31.653589 29.983418 C 30.238747 29.900014 28.886412 29.855574 27.594483 29.854861 C 26.314187 29.853588 25.331574 30.029191 24.641878 30.379567 C 23.45562 30.926433 22.771386 31.728942 22.593943 32.789196 C 22.42603 33.853656 23.107585 34.786239 24.64071 35.582181 C 25.531938 36.026614 26.632134 36.500621 27.940737 36.992569 C 29.253544 37.474987 30.52837 37.991882 31.757786 38.534285 C 35.320877 40.225822 37.770868 42.530658 39.09879 45.45622 C 40.439886 48.364825 40.690311 51.577831 39.85693 55.092577 C 39.508917 56.62977 38.934417 58.112582 38.136093 59.547881 C 37.353607 60.973088 36.314643 62.205443 35.019201 63.244945 C 33.246254 64.682897 30.743956 65.6966 27.521836 66.290259 C 24.307145 66.892887 20.589728 67.176943 16.357953 67.142988 C 12.133606 67.118003 7.54248 66.982434 2.592002 66.745251 Z M 2.592002 66.745251 " stroke="#ffffff" stroke-width="11.317711" stroke-opacity="1" stroke-miterlimit="4"/><g fill="#c686ab" fill-opacity="1"><g transform="translate(104.716428, 216.542158)"><g><path d="M 21.671875 -0.078125 C 19.523438 0.554688 17.316406 0.785156 15.046875 0.609375 C 12.773438 0.441406 10.644531 -0.132812 8.65625 -1.125 C 6.675781 -2.125 5.015625 -3.5 3.671875 -5.25 C 2.523438 -6.820312 1.625 -8.648438 0.96875 -10.734375 C 0.3125 -12.816406 -0.101562 -15.023438 -0.28125 -17.359375 C -0.46875 -19.703125 -0.421875 -21.988281 -0.140625 -24.21875 C 0.378906 -28.019531 1.566406 -31.242188 3.421875 -33.890625 C 5.273438 -36.546875 7.613281 -38.414062 10.4375 -39.5 C 13.269531 -40.582031 16.429688 -40.660156 19.921875 -39.734375 C 22.222656 -39.148438 24.035156 -38.269531 25.359375 -37.09375 C 26.691406 -35.914062 27.648438 -34.582031 28.234375 -33.09375 C 28.828125 -31.601562 29.191406 -30.097656 29.328125 -28.578125 C 29.472656 -27.066406 29.523438 -25.679688 29.484375 -24.421875 C 29.460938 -23.347656 28.828125 -22.703125 27.578125 -22.484375 L 20.0625 -22.09375 C 19.507812 -22 19.015625 -22.144531 18.578125 -22.53125 C 18.148438 -22.914062 17.90625 -23.382812 17.84375 -23.9375 C 17.84375 -24.15625 17.804688 -24.550781 17.734375 -25.125 C 17.671875 -25.707031 17.550781 -26.285156 17.375 -26.859375 C 17.195312 -27.429688 16.921875 -27.820312 16.546875 -28.03125 C 15.421875 -28.488281 14.566406 -28.359375 13.984375 -27.640625 C 13.410156 -26.921875 13.03125 -25.796875 12.84375 -24.265625 C 12.65625 -22.742188 12.582031 -21 12.625 -19.03125 L 12.625 -18.765625 C 12.675781 -16.722656 13 -15.035156 13.59375 -13.703125 C 14.195312 -12.378906 14.882812 -11.492188 15.65625 -11.046875 C 16.425781 -10.609375 17.128906 -10.703125 17.765625 -11.328125 C 18.410156 -11.953125 18.800781 -13.210938 18.9375 -15.109375 C 18.925781 -15.367188 18.796875 -15.492188 18.546875 -15.484375 L 16.984375 -15.453125 C 16.460938 -15.441406 16.195312 -15.695312 16.1875 -16.21875 L 16.140625 -18.5 C 16.128906 -19.019531 16.382812 -19.285156 16.90625 -19.296875 L 29.703125 -19.578125 C 30.222656 -19.585938 30.488281 -19.332031 30.5 -18.8125 C 30.570312 -15.4375 30.363281 -12.484375 29.875 -9.953125 C 29.394531 -7.421875 28.503906 -5.320312 27.203125 -3.65625 C 25.898438 -1.988281 24.054688 -0.796875 21.671875 -0.078125 Z M 21.671875 -0.078125 "/></g></g></g><g fill="#c686ab" fill-opacity="1"><g transform="translate(142.293191, 215.221774)"><g><path d="M 12.1875 -1.265625 L 2.09375 -0.21875 C 1.550781 -0.15625 1.039062 -0.320312 0.5625 -0.71875 C 0.09375 -1.125 -0.164062 -1.601562 -0.21875 -2.15625 L -3.6875 -36.65625 C -3.757812 -37.289062 -3.613281 -37.832031 -3.25 -38.28125 C -2.882812 -38.726562 -2.410156 -38.984375 -1.828125 -39.046875 L 8.828125 -40.078125 C 9.378906 -40.140625 9.90625 -39.976562 10.40625 -39.59375 C 10.914062 -39.21875 11.179688 -38.71875 11.203125 -38.09375 L 14.125 -3.640625 C 14.1875 -3.054688 14.023438 -2.53125 13.640625 -2.0625 C 13.265625 -1.59375 12.78125 -1.328125 12.1875 -1.265625 Z M 12.1875 -1.265625 "/></g></g></g><g fill="#c686ab" fill-opacity="1"><g transform="translate(164.046605, 213.136279)"><g><path d="M 29.140625 -5.21875 C 28.085938 -5.0625 26.820312 -4.84375 25.34375 -4.5625 C 23.863281 -4.28125 22.101562 -3.945312 20.0625 -3.5625 C 19.476562 -3.457031 18.96875 -3.550781 18.53125 -3.84375 C 18.09375 -4.132812 17.65625 -4.539062 17.21875 -5.0625 L 12.484375 -11.875 L 11.4375 -11.6875 L 12.984375 -4.765625 C 13.171875 -4.171875 13.082031 -3.625 12.71875 -3.125 C 12.351562 -2.625 11.9375 -2.328125 11.46875 -2.234375 L 1.96875 -0.375 C 1.457031 -0.28125 0.976562 -0.40625 0.53125 -0.75 C 0.09375 -1.101562 -0.179688 -1.570312 -0.296875 -2.15625 L -6.875 -36.3125 C -6.96875 -36.820312 -6.863281 -37.335938 -6.5625 -37.859375 C -6.269531 -38.390625 -5.890625 -38.695312 -5.421875 -38.78125 L 2.34375 -40.265625 C 5.21875 -40.847656 7.863281 -41.320312 10.28125 -41.6875 C 12.707031 -42.050781 14.890625 -42.140625 16.828125 -41.953125 C 18.773438 -41.773438 20.484375 -41.164062 21.953125 -40.125 C 23.421875 -39.082031 24.632812 -37.425781 25.59375 -35.15625 C 25.9375 -34.269531 26.296875 -33.191406 26.671875 -31.921875 C 27.046875 -30.660156 27.328125 -29.316406 27.515625 -27.890625 C 27.703125 -26.472656 27.753906 -25.09375 27.671875 -23.75 C 27.585938 -22.414062 27.273438 -21.265625 26.734375 -20.296875 C 26.035156 -18.992188 25.125 -17.859375 24 -16.890625 C 24.800781 -15.835938 25.710938 -14.613281 26.734375 -13.21875 C 27.753906 -11.820312 28.96875 -10.195312 30.375 -8.34375 C 30.96875 -7.550781 31.175781 -6.875 31 -6.3125 C 30.820312 -5.75 30.203125 -5.382812 29.140625 -5.21875 Z M 7.78125 -28.328125 L 9.015625 -22.671875 L 11.75 -23.1875 C 13.03125 -23.425781 13.957031 -23.921875 14.53125 -24.671875 C 15.101562 -25.421875 15.332031 -26.207031 15.21875 -27.03125 C 15.101562 -27.851562 14.601562 -28.507812 13.71875 -29 C 13.300781 -29.21875 12.554688 -29.21875 11.484375 -29 C 10.410156 -28.78125 9.175781 -28.554688 7.78125 -28.328125 Z M 7.78125 -28.328125 "/></g></g></g><g fill="#c686ab" fill-opacity="1"><g transform="translate(202.471247, 205.400884)"><g><path d="M 1.8125 -0.53125 C 1.351562 -0.394531 0.875 -0.460938 0.375 -0.734375 C -0.09375 -0.992188 -0.421875 -1.445312 -0.609375 -2.09375 L -10.21875 -35.8125 C -10.351562 -36.3125 -10.296875 -36.847656 -10.046875 -37.421875 C -9.773438 -37.960938 -9.425781 -38.289062 -9 -38.40625 L 0.015625 -40.953125 C 0.515625 -41.085938 1.015625 -41.019531 1.515625 -40.75 C 1.984375 -40.457031 2.300781 -40.007812 2.46875 -39.40625 L 9.796875 -16.03125 L 15.828125 -17.421875 C 16.421875 -17.515625 16.957031 -17.460938 17.4375 -17.265625 C 17.96875 -17.023438 18.296875 -16.675781 18.421875 -16.21875 L 20.703125 -8.171875 C 20.835938 -7.671875 20.765625 -7.164062 20.484375 -6.65625 C 20.203125 -6.195312 19.757812 -5.882812 19.15625 -5.71875 L 8.125 -2.34375 C 8.050781 -2.320312 7.960938 -2.296875 7.859375 -2.265625 C 7.753906 -2.234375 7.660156 -2.226562 7.578125 -2.25 Z M 1.8125 -0.53125 "/></g></g></g><g fill="#c686ab" fill-opacity="1"><g transform="translate(229.853361, 197.167856)"><g><path d="M -5.15625 -28.046875 C -5.863281 -27.691406 -6.578125 -27.679688 -7.296875 -28.015625 C -8.023438 -28.347656 -8.382812 -28.882812 -8.375 -29.625 L -8.34375 -30.890625 C -8.320312 -31.285156 -8.4375 -31.515625 -8.6875 -31.578125 C -8.9375 -31.648438 -9.234375 -31.75 -9.578125 -31.875 C -10.910156 -32.289062 -11.832031 -33.210938 -12.34375 -34.640625 C -12.800781 -35.910156 -12.757812 -37.117188 -12.21875 -38.265625 C -11.6875 -39.421875 -10.773438 -40.234375 -9.484375 -40.703125 C -8.671875 -40.984375 -7.859375 -41.0625 -7.046875 -40.9375 C -6.234375 -40.8125 -5.546875 -40.554688 -4.984375 -40.171875 C -4.441406 -39.734375 -3.960938 -39.210938 -3.546875 -38.609375 C -3.140625 -38.015625 -2.914062 -37.390625 -2.875 -36.734375 C -2.820312 -35.804688 -2.898438 -34.703125 -3.109375 -33.421875 C -3.316406 -32.140625 -3.601562 -30.976562 -3.96875 -29.9375 C -4.332031 -28.90625 -4.726562 -28.273438 -5.15625 -28.046875 Z M -5.15625 -28.046875 "/></g></g></g><g fill="#c686ab" fill-opacity="1"><g transform="translate(245.312197, 191.886594)"><g><path d="M 2.015625 -0.265625 C 1.398438 -0.171875 0.90625 -0.289062 0.53125 -0.625 C 0.164062 -0.96875 -0.148438 -1.445312 -0.421875 -2.0625 L -3.75 -9.59375 C -4.03125 -10.238281 -3.898438 -10.820312 -3.359375 -11.34375 C -2.828125 -11.875 -2.078125 -12.359375 -1.109375 -12.796875 C -0.148438 -13.242188 0.84375 -13.65625 1.875 -14.03125 C 2.90625 -14.40625 3.753906 -14.757812 4.421875 -15.09375 C 5.535156 -15.664062 6.191406 -16.273438 6.390625 -16.921875 C 6.585938 -17.578125 6.367188 -18.140625 5.734375 -18.609375 C 5.109375 -19.085938 4.128906 -19.28125 2.796875 -19.1875 C 0.253906 -19.03125 -1.898438 -19.078125 -3.671875 -19.328125 C -5.441406 -19.585938 -6.910156 -20.144531 -8.078125 -21 C -9.253906 -21.863281 -10.203125 -23.113281 -10.921875 -24.75 C -11.722656 -26.570312 -12.1875 -28.335938 -12.3125 -30.046875 C -12.4375 -31.753906 -12.035156 -33.488281 -11.109375 -35.25 C -10.484375 -36.40625 -9.625 -37.445312 -8.53125 -38.375 C -7.445312 -39.3125 -6.25 -40.148438 -4.9375 -40.890625 C -3.625 -41.628906 -2.363281 -42.289062 -1.15625 -42.875 C -0.582031 -43.15625 0.269531 -43.546875 1.40625 -44.046875 C 2.539062 -44.546875 3.738281 -45.035156 5 -45.515625 C 6.269531 -45.992188 7.421875 -46.367188 8.453125 -46.640625 C 9.492188 -46.921875 10.195312 -46.972656 10.5625 -46.796875 C 10.875 -46.660156 11.164062 -46.367188 11.4375 -45.921875 C 11.707031 -45.484375 12.085938 -44.679688 12.578125 -43.515625 C 13.078125 -42.347656 13.832031 -40.566406 14.84375 -38.171875 C 15.382812 -36.953125 14.925781 -36.019531 13.46875 -35.375 C 12.6875 -35.03125 11.800781 -34.671875 10.8125 -34.296875 C 9.820312 -33.921875 8.882812 -33.535156 8 -33.140625 C 7.113281 -32.753906 6.488281 -32.34375 6.125 -31.90625 C 5.476562 -31.175781 5.253906 -30.414062 5.453125 -29.625 C 5.660156 -28.84375 6.410156 -28.414062 7.703125 -28.34375 C 8.453125 -28.289062 9.347656 -28.296875 10.390625 -28.359375 C 11.429688 -28.421875 12.460938 -28.457031 13.484375 -28.46875 C 16.429688 -28.382812 18.800781 -27.539062 20.59375 -25.9375 C 22.394531 -24.34375 23.539062 -22.210938 24.03125 -19.546875 C 24.257812 -18.390625 24.316406 -17.195312 24.203125 -15.96875 C 24.097656 -14.75 23.765625 -13.59375 23.203125 -12.5 C 22.421875 -10.96875 21.015625 -9.507812 18.984375 -8.125 C 16.953125 -6.75 14.476562 -5.429688 11.5625 -4.171875 C 8.65625 -2.910156 5.472656 -1.609375 2.015625 -0.265625 Z M 2.015625 -0.265625 "/></g></g></g><path stroke-linecap="butt" transform="matrix(0.749974, 0.00620819, -0.00620819, 0.749974, 151.45085, 220.156642)" fill="none" stroke-linejoin="miter" d="M 17.677575 3.394933 L 25.072164 3.213926 L 24.138449 29.472556 L 22.818569 31.103329 L 16.703203 31.034155 L 12.812687 26.029729 L 9.031332 31.066411 L 2.499314 31.000686 L 1.287254 29.297119 L 1.290479 29.057501 L 0.696317 3.212574 L 7.818107 3.424464 L 8.928594 21.801319 L 12.711328 16.931298 L 16.465571 21.832682 Z M 17.677575 3.394933 " stroke="#ffffff" stroke-width="7.64115" stroke-opacity="1" stroke-miterlimit="4"/><path stroke-linecap="butt" transform="matrix(0.743914, -0.095354, 0.095354, 0.743914, 173.221618, 220.048051)" fill="none" stroke-linejoin="miter" d="M 18.655603 3.214072 L 20.281895 4.98731 L 20.034663 28.464103 L 18.75752 30.931124 L 3.164924 31.03286 L 0.865467 29.677428 L 0.697663 5.055239 L 1.807789 3.317695 Z M 7.989051 9.045891 L 8.199816 25.098793 L 12.885697 25.410621 L 12.955623 9.461961 Z M 7.989051 9.045891 " stroke="#ffffff" stroke-width="7.64115" stroke-opacity="1" stroke-miterlimit="4"/><path stroke-linecap="butt" transform="matrix(0.726274, -0.187151, 0.187151, 0.726274, 191.402891, 217.55316)" fill="none" stroke-linejoin="miter" d="M 18.924724 23.256996 L 17.118062 23.463754 L 19.554347 28.431981 L 18.960978 29.607562 L 13.616262 31.000219 L 9.757409 23.955059 L 8.056602 24.022362 L 7.739651 30.303426 L 0.696587 30.898084 L 0.694874 3.144703 L 18.888862 4.256354 L 20.249682 5.612793 L 20.283098 20.928549 Z M 12.953885 17.415612 L 12.988543 9.641888 L 8.403707 9.191912 L 8.233168 17.764286 Z M 12.953885 17.415612 " stroke="#ffffff" stroke-width="7.64115" stroke-opacity="1" stroke-miterlimit="4"/><path stroke-linecap="butt" transform="matrix(0.698584, -0.272912, 0.272912, 0.698584, 209.185332, 212.758623)" fill="none" stroke-linejoin="miter" d="M 17.537341 24.435865 L 18.342134 31.035308 L 0.6947 31.035611 L 0.943455 3.146475 L 8.366445 3.597223 L 7.987405 24.334038 Z M 17.537341 24.435865 " stroke="#ffffff" stroke-width="7.64115" stroke-opacity="1" stroke-miterlimit="4"/><path stroke-linecap="butt" transform="matrix(0.660693, -0.354944, 0.354944, 0.660693, 224.939476, 206.480142)" fill="none" stroke-linejoin="miter" d="M 17.779564 4.603573 L 20.416923 8.113416 L 19.832894 27.458245 L 17.11763 30.652547 L 0.69452 31.035094 L 0.900417 3.215735 Z M 8.021883 9.956394 L 8.301169 25.37214 L 13.126153 24.292694 L 13.369311 11.481178 Z M 8.021883 9.956394 " stroke="#ffffff" stroke-width="7.64115" stroke-opacity="1" stroke-miterlimit="4"/><g fill="#c686ab" fill-opacity="1"><g transform="translate(151.258396, 243.405844)"><g><path d="M 13.4375 -20.59375 L 18.984375 -20.6875 L 18.125 -0.984375 L 17.109375 0.21875 L 12.53125 0.140625 L 9.640625 -3.640625 L 6.765625 0.109375 L 1.875 0.015625 L 0.984375 -1.265625 L 0.984375 -1.4375 L 0.6875 -20.84375 L 6.03125 -20.640625 L 6.75 -6.84375 L 9.625 -10.46875 L 12.40625 -6.765625 Z M 13.4375 -20.59375 "/></g></g></g><g fill="#c686ab" fill-opacity="1"><g transform="translate(176.177593, 243.109374)"><g><path d="M 11.21875 -22.453125 L 12.609375 -21.296875 L 14.65625 -3.796875 L 13.953125 -1.828125 L 2.359375 -0.265625 L 0.53125 -1.046875 L -1.953125 -19.359375 L -1.296875 -20.765625 Z M 3.84375 -17.09375 L 5.53125 -5.171875 L 9.046875 -5.390625 L 7.59375 -17.265625 Z M 3.84375 -17.09375 "/></g></g></g><g fill="#c686ab" fill-opacity="1"><g transform="translate(197.204566, 240.067667)"><g><path d="M 12.296875 -9.171875 L 11.03125 -8.6875 L 13.71875 -5.515625 L 13.5 -4.5625 L 9.875 -2.546875 L 5.765625 -6.9375 L 4.546875 -6.578125 L 5.5 -1.953125 L 0.484375 -0.203125 L -4.71875 -20.359375 L 8.71875 -22.953125 L 9.953125 -22.234375 L 12.84375 -11.109375 Z M 6.859375 -12.28125 L 5.421875 -17.9375 L 2.015625 -17.421875 L 3.5 -11.15625 Z M 6.859375 -12.28125 "/></g></g></g><g fill="#c686ab" fill-opacity="1"><g transform="translate(217.6456, 234.414714)"><g><path d="M 10.453125 -9.359375 L 12.828125 -4.96875 L 0.5 -0.15625 L -6.953125 -19.703125 L -1.625 -21.421875 L 3.765625 -6.828125 Z M 10.453125 -9.359375 "/></g></g></g><g fill="#c686ab" fill-opacity="1"><g transform="translate(235.942742, 226.961611)"><g><path d="M 2.375 -23.75 L 5.359375 -22.375 L 11.859375 -9.390625 L 11.1875 -6.3125 L 0.46875 -0.21875 L -9.265625 -18.671875 Z M -2.171875 -16.75 L 3.484375 -6.65625 L 6.296875 -9.09375 L 1.921875 -17.640625 Z M -2.171875 -16.75 "/></g></g></g></svg>